<svg class="svg-icon" style="width: 1em;height: 1em;vertical-align: middle;fill: #2c3e50;overflow: hidden;" viewBox="0 0 1024 1024" version="1.1" xmlns="http://www.w3.org/2000/svg"><path d="M909.90592 112.64a28.71296 28.71296 0 0 1 26.66496 39.38304l-34.46784 86.14912a28.672 28.672 0 0 1-7.19872 10.45504L894.8736 773.12h28.7232A28.71296 28.71296 0 0 1 952.32 801.83296v86.14912a28.71296 28.71296 0 0 1-28.71296 28.7232H100.39296A28.71296 28.71296 0 0 1 71.68 887.98208v-86.14912A28.71296 28.71296 0 0 1 100.39296 773.12h28.71296V248.6272a28.672 28.672 0 0 1-7.20896-10.45504l-34.46784-86.14912A28.71296 28.71296 0 0 1 114.09408 112.64h795.81184zM894.8736 830.55616H129.1264v28.71296H894.8736v-28.71296z m-57.42592-574.33088H186.54208V773.12h57.43616V576.89088c0-140.09344 113.5616-253.66528 253.66528-253.66528h47.86176c140.0832 0 253.65504 113.5616 253.65504 253.66528V773.12h38.2976V256.22528z m-282.4192 169.7792l-0.53248 0.1024a78.2336 78.2336 0 0 0-13.0048 4.10624c-23.9616 9.90208-40.51968 29.16352-43.84768 57.9584-3.60448 31.26272-2.21184 45.16864 1.77152 52.49024 0.48128 0.89088 2.73408 4.44416 3.10272 5.08928l0.88064 1.59744c3.86048 7.4752 4.25984 15.11424 1.3312 26.33728-5.85728 22.45632-31.49824 32.6144-55.30624 26.28608-21.52448-5.72416-36.08576-22.99904-37.70368-46.96064l-0.12288-2.32448-0.93184 0.54272c-37.6832 22.1696-48.54784 56.38144-33.92512 106.04544l0.95232 3.1232c13.14816 42.14784 42.0352 67.05152 83.6608 79.43168 25.14944 7.4752 47.23712 9.3184 81.5616 9.29792h1.67936c18.3296 0 53.07392-13.37344 79.85152-32.68608 32.21504-23.21408 49.24416-50.93376 45.80352-79.48288-0.6144-5.20192 0.80896-4.82304-17.57184-25.64096l-35.92192-40.1408c-14.65344-16.32256-25.4976-29.40928-34.58048-42.24a252.45696 252.45696 0 0 1-4.34176-6.32832c-21.73952-32.74752-29.68576-69.00736-23.04-95.744l0.23552-0.86016z m-23.7056 157.30688a23.93088 23.93088 0 0 1 33.792-1.56672l5.59104 5.09952c22.0672 20.2752 35.87072 34.304 42.1888 43.15136l1.4336 2.10944c18.74944 29.47072-2.5088 81.0496-56.832 96.01024-29.80864 8.20224-54.76352 2.2016-71.41376-14.81728-13.63968-13.93664-20.00896-34.4576-15.7696-49.43872 3.65568-12.97408 20.5824-35.5328 52.2752-70.89152z m17.99168 22.87616l-9.76896 10.92608c-25.41568 28.7232-39.70048 47.79008-41.60512 54.54848-1.26976 4.49536 1.86368 14.60224 8.66304 21.5552 9.12384 9.3184 23.2448 12.71808 43.264 7.20896 20.64384-5.6832 32.98304-16.3328 38.54336-29.80864 3.93216-9.54368 3.69664-19.94752 1.6896-23.10144-3.25632-5.12-14.05952-16.41472-31.72352-32.94208l-9.0624-8.38656z m-128.93184-91.4432l0.24576-0.12288a14.6944 14.6944 0 0 1 19.27168 6.54336l0.58368 1.2288c1.10592 2.64192 1.35168 4.85376 1.35168 7.70048 0 2.90816-0.36864 6.8608-1.10592 12.19584-2.33472 17.00864 4.29056 26.79808 16.06656 29.92128 9.96352 2.65216 18.87232-0.88064 20.15232-5.77536 0.8192-3.1744 1.05472-5.03808 0.98304-5.90848l-1.56672-2.4576a93.87008 93.87008 0 0 1-2.17088-3.6864l-0.74752-1.41312c-6.2464-12.4928-8.1408-30.02368-5.12-60.76416l0.78848-7.33184c4.608-39.91552 28.3648-67.55328 61.40928-81.2032 12.34944-5.09952 25.2416-7.74144 35.54304-7.54688 5.94944 0.11264 11.03872 1.1264 15.2576 3.59424 8.704 5.14048 11.42784 15.91296 5.4272 24.55552l-0.88064 1.36192c-9.472 15.85152-5.07904 49.48992 15.88224 81.1008 1.2288 1.8432 2.5088 3.70688 3.85024 5.60128 8.33536 11.76576 18.5344 24.08448 32.52224 39.65952l3.09248 3.44064 21.63712 23.72608c4.23936 4.68992 7.68 8.57088 10.77248 12.16512l5.20192 6.1952c12.2368 14.87872 18.688 25.6512 19.93728 36.00384 4.89472 40.73472-17.69472 77.49632-57.52832 106.20928-21.0432 15.17568-46.1824 27.16672-67.97312 33.39264l168.448-0.01024V576.89088c0-107.27424-86.0672-194.43712-192.91136-196.1984l-3.30752-0.03072h-47.86176c-107.27424 0-194.43712 86.0672-196.1984 192.9216l-0.03072 3.30752V773.12l175.5136 0.01024a234.41408 234.41408 0 0 1-23.74656-5.77536c-50.20672-14.94016-86.66112-46.35648-102.89152-98.4064-23.05024-73.90208 1.3312-127.31392 70.99392-154.55232l-0.91136 0.3584 0.02048-0.01024z m447.08864-344.6784H156.50816l11.48928 28.7232h687.99488l11.48928-28.71296z" fill="#2c3e50" /></svg>