<svg class="svg-icon" style="width: 1em;height: 1em;vertical-align: middle;fill: #2c3e50;overflow: hidden;" viewBox="0 0 1024 1024" version="1.1" xmlns="http://www.w3.org/2000/svg"><path d="M768 224a96 96 0 0 1 96 96v384a96 96 0 0 1-96 96H256a96 96 0 0 1-96-96V320a96 96 0 0 1 96-96z m0 64H256a32 32 0 0 0-32 32v384a32 32 0 0 0 32 32h512a32 32 0 0 0 32-32V320a32 32 0 0 0-32-32z m-29.696 96.192a32 32 0 0 1-4.608 63.84c-16.448-1.184-29.76 6.336-48.64 29.184l-7.84 9.984-4.224 5.632-17.152 24.384c-56.48 81.344-100.544 112.64-177.696 91.52l-7.584-2.176c-78.72-24.32-125.184-1.024-152.384 76.16a32 32 0 1 1-60.352-21.248c37.696-107.008 116.192-148.48 223.52-118.464l8.096 2.4c44.992 13.888 68.064-0.128 109.024-57.856l13.024-18.688c43.776-62.848 73.92-88.448 126.816-84.672zM336 352a64 64 0 1 1 0 128 64 64 0 0 1 0-128z"  /></svg>