<svg class="svg-icon" style="width: 1em;height: 1em;vertical-align: middle;fill: #2c3e50;overflow: hidden;" viewBox="0 0 1024 1024" version="1.1" xmlns="http://www.w3.org/2000/svg"><path d="M544.384 96.672l-29.184 53.12-208.704 379.392-61.312-61.312-21.12 35.136-187.52 312.544L7.52 864h1001.088l-19.136-44.64-96-224-18.624-43.424-66.176 66.176-236.896-467.36-27.36-54.08z m-2.336 137.024l97.28 191.872-24.768 21.248-72.96-62.496-72.928 62.496-29.76-25.568 103.136-187.552z m-0.416 234.88l72.96 62.496 54.464-46.72 102.4 202.08 19.904 39.456 61.824-61.824L911.424 800H120.512c45.76-76.32 91.584-152.64 137.376-228.928l63.616 63.616 20.544-37.312c21.792-39.616 43.616-79.2 65.376-118.816l61.248 52.48 72.96-62.464z"  /></svg>